<mxfile host="Electron" agent="Mozilla/5.0 (Windows NT 10.0; Win64; x64) AppleWebKit/537.36 (KHTML, like Gecko) draw.io/26.0.9 Chrome/128.0.6613.186 Electron/32.2.5 Safari/537.36" version="26.0.9">
  <diagram name="Page-1" id="jW_92feX34ZZg_jcfgH5">
    <mxGraphModel dx="444" dy="515" grid="1" gridSize="10" guides="1" tooltips="1" connect="1" arrows="1" fold="1" page="1" pageScale="1" pageWidth="850" pageHeight="1100" math="0" shadow="0">
      <root>
        <mxCell id="0" />
        <mxCell id="1" parent="0" />
        <mxCell id="4T9Y0Mgv18sVXNaDFB9W-4" style="edgeStyle=orthogonalEdgeStyle;rounded=0;orthogonalLoop=1;jettySize=auto;html=1;exitX=0.5;exitY=1;exitDx=0;exitDy=0;entryX=0.5;entryY=0;entryDx=0;entryDy=0;" parent="1" source="4T9Y0Mgv18sVXNaDFB9W-1" target="4T9Y0Mgv18sVXNaDFB9W-3" edge="1">
          <mxGeometry relative="1" as="geometry" />
        </mxCell>
        <mxCell id="4T9Y0Mgv18sVXNaDFB9W-1" value="начало" style="rounded=1;whiteSpace=wrap;html=1;arcSize=50;" parent="1" vertex="1">
          <mxGeometry x="220" y="80" width="120" height="20" as="geometry" />
        </mxCell>
        <mxCell id="4T9Y0Mgv18sVXNaDFB9W-2" value="конец" style="rounded=1;whiteSpace=wrap;html=1;arcSize=50;" parent="1" vertex="1">
          <mxGeometry x="220" y="750" width="120" height="20" as="geometry" />
        </mxCell>
        <mxCell id="4T9Y0Mgv18sVXNaDFB9W-8" style="edgeStyle=orthogonalEdgeStyle;rounded=0;orthogonalLoop=1;jettySize=auto;html=1;entryX=0.5;entryY=0;entryDx=0;entryDy=0;" parent="1" source="4T9Y0Mgv18sVXNaDFB9W-3" target="4T9Y0Mgv18sVXNaDFB9W-5" edge="1">
          <mxGeometry relative="1" as="geometry" />
        </mxCell>
        <mxCell id="4T9Y0Mgv18sVXNaDFB9W-3" value="Переменные text, counter, last_word" style="rounded=0;whiteSpace=wrap;html=1;" parent="1" vertex="1">
          <mxGeometry x="210" y="130" width="140" height="40" as="geometry" />
        </mxCell>
        <mxCell id="LRmHkcy2NVX13I5E6LH1-5" style="edgeStyle=orthogonalEdgeStyle;rounded=0;orthogonalLoop=1;jettySize=auto;html=1;entryX=0.5;entryY=0;entryDx=0;entryDy=0;" edge="1" parent="1" source="4T9Y0Mgv18sVXNaDFB9W-5" target="LRmHkcy2NVX13I5E6LH1-1">
          <mxGeometry relative="1" as="geometry" />
        </mxCell>
        <mxCell id="LRmHkcy2NVX13I5E6LH1-15" style="edgeStyle=orthogonalEdgeStyle;rounded=0;orthogonalLoop=1;jettySize=auto;html=1;entryX=0.5;entryY=0;entryDx=0;entryDy=0;" edge="1" parent="1" source="4T9Y0Mgv18sVXNaDFB9W-5" target="4T9Y0Mgv18sVXNaDFB9W-2">
          <mxGeometry relative="1" as="geometry">
            <mxPoint x="430" y="790" as="targetPoint" />
            <Array as="points">
              <mxPoint x="460" y="215" />
              <mxPoint x="460" y="720" />
              <mxPoint x="280" y="720" />
            </Array>
          </mxGeometry>
        </mxCell>
        <mxCell id="4T9Y0Mgv18sVXNaDFB9W-5" value="От i = 0 до длины text&lt;br&gt;с шагом 1" style="shape=hexagon;perimeter=hexagonPerimeter2;whiteSpace=wrap;html=1;fixedSize=1;" parent="1" vertex="1">
          <mxGeometry x="195" y="200" width="170" height="30" as="geometry" />
        </mxCell>
        <mxCell id="LRmHkcy2NVX13I5E6LH1-10" style="edgeStyle=orthogonalEdgeStyle;rounded=0;orthogonalLoop=1;jettySize=auto;html=1;entryX=0.5;entryY=0;entryDx=0;entryDy=0;" edge="1" parent="1" source="4T9Y0Mgv18sVXNaDFB9W-6" target="LRmHkcy2NVX13I5E6LH1-8">
          <mxGeometry relative="1" as="geometry">
            <Array as="points">
              <mxPoint x="176" y="540" />
            </Array>
          </mxGeometry>
        </mxCell>
        <mxCell id="LRmHkcy2NVX13I5E6LH1-11" style="edgeStyle=orthogonalEdgeStyle;rounded=0;orthogonalLoop=1;jettySize=auto;html=1;entryX=0.5;entryY=0;entryDx=0;entryDy=0;" edge="1" parent="1" source="4T9Y0Mgv18sVXNaDFB9W-6" target="4T9Y0Mgv18sVXNaDFB9W-36">
          <mxGeometry relative="1" as="geometry">
            <Array as="points">
              <mxPoint x="380" y="540" />
              <mxPoint x="380" y="630" />
              <mxPoint x="280" y="630" />
            </Array>
          </mxGeometry>
        </mxCell>
        <mxCell id="4T9Y0Mgv18sVXNaDFB9W-6" value="counter &amp;lt;= 5" style="rhombus;whiteSpace=wrap;html=1;" parent="1" vertex="1">
          <mxGeometry x="210" y="520" width="140" height="40" as="geometry" />
        </mxCell>
        <mxCell id="LRmHkcy2NVX13I5E6LH1-4" style="edgeStyle=orthogonalEdgeStyle;rounded=0;orthogonalLoop=1;jettySize=auto;html=1;entryX=0;entryY=0.5;entryDx=0;entryDy=0;" edge="1" parent="1" source="4T9Y0Mgv18sVXNaDFB9W-17" target="LRmHkcy2NVX13I5E6LH1-1">
          <mxGeometry relative="1" as="geometry">
            <Array as="points">
              <mxPoint x="150" y="380" />
              <mxPoint x="150" y="295" />
            </Array>
          </mxGeometry>
        </mxCell>
        <mxCell id="4T9Y0Mgv18sVXNaDFB9W-17" value="last_word[counter] = text[i]&lt;br&gt;counter ++&lt;br&gt;i++" style="rounded=0;whiteSpace=wrap;html=1;" parent="1" vertex="1">
          <mxGeometry x="196.25" y="355" width="167.5" height="55" as="geometry" />
        </mxCell>
        <mxCell id="LRmHkcy2NVX13I5E6LH1-7" style="edgeStyle=orthogonalEdgeStyle;rounded=0;orthogonalLoop=1;jettySize=auto;html=1;entryX=0.5;entryY=0;entryDx=0;entryDy=0;" edge="1" parent="1" source="4T9Y0Mgv18sVXNaDFB9W-25" target="4T9Y0Mgv18sVXNaDFB9W-6">
          <mxGeometry relative="1" as="geometry" />
        </mxCell>
        <mxCell id="4T9Y0Mgv18sVXNaDFB9W-25" value="Закрываем строку \0" style="rounded=0;whiteSpace=wrap;html=1;" parent="1" vertex="1">
          <mxGeometry x="216.25" y="470" width="127.5" height="20" as="geometry" />
        </mxCell>
        <mxCell id="LRmHkcy2NVX13I5E6LH1-13" style="edgeStyle=orthogonalEdgeStyle;rounded=0;orthogonalLoop=1;jettySize=auto;html=1;entryX=0;entryY=0.5;entryDx=0;entryDy=0;" edge="1" parent="1" source="4T9Y0Mgv18sVXNaDFB9W-36" target="4T9Y0Mgv18sVXNaDFB9W-5">
          <mxGeometry relative="1" as="geometry">
            <Array as="points">
              <mxPoint x="100" y="680" />
              <mxPoint x="100" y="215" />
            </Array>
          </mxGeometry>
        </mxCell>
        <mxCell id="4T9Y0Mgv18sVXNaDFB9W-36" value="очищаем last_word&lt;br&gt;обнуляем counter" style="rounded=0;whiteSpace=wrap;html=1;" parent="1" vertex="1">
          <mxGeometry x="200" y="660" width="160" height="40" as="geometry" />
        </mxCell>
        <mxCell id="4T9Y0Mgv18sVXNaDFB9W-50" style="edgeStyle=orthogonalEdgeStyle;rounded=0;orthogonalLoop=1;jettySize=auto;html=1;exitX=0.5;exitY=1;exitDx=0;exitDy=0;" parent="1" edge="1">
          <mxGeometry relative="1" as="geometry">
            <mxPoint x="280" y="1080" as="sourcePoint" />
            <mxPoint x="280" y="1080" as="targetPoint" />
          </mxGeometry>
        </mxCell>
        <mxCell id="LRmHkcy2NVX13I5E6LH1-3" style="edgeStyle=orthogonalEdgeStyle;rounded=0;orthogonalLoop=1;jettySize=auto;html=1;entryX=0.5;entryY=0;entryDx=0;entryDy=0;" edge="1" parent="1" source="LRmHkcy2NVX13I5E6LH1-1" target="4T9Y0Mgv18sVXNaDFB9W-17">
          <mxGeometry relative="1" as="geometry" />
        </mxCell>
        <mxCell id="LRmHkcy2NVX13I5E6LH1-6" style="edgeStyle=orthogonalEdgeStyle;rounded=0;orthogonalLoop=1;jettySize=auto;html=1;entryX=0.5;entryY=0;entryDx=0;entryDy=0;" edge="1" parent="1" source="LRmHkcy2NVX13I5E6LH1-1" target="4T9Y0Mgv18sVXNaDFB9W-25">
          <mxGeometry relative="1" as="geometry">
            <Array as="points">
              <mxPoint x="400" y="295" />
              <mxPoint x="400" y="440" />
              <mxPoint x="280" y="440" />
            </Array>
          </mxGeometry>
        </mxCell>
        <mxCell id="LRmHkcy2NVX13I5E6LH1-1" value="пока text[i] != пробелу или концу строки" style="shape=hexagon;perimeter=hexagonPerimeter2;whiteSpace=wrap;html=1;fixedSize=1;" vertex="1" parent="1">
          <mxGeometry x="195" y="280" width="170" height="30" as="geometry" />
        </mxCell>
        <mxCell id="LRmHkcy2NVX13I5E6LH1-12" style="edgeStyle=orthogonalEdgeStyle;rounded=0;orthogonalLoop=1;jettySize=auto;html=1;entryX=0.5;entryY=0;entryDx=0;entryDy=0;" edge="1" parent="1" source="LRmHkcy2NVX13I5E6LH1-8" target="4T9Y0Mgv18sVXNaDFB9W-36">
          <mxGeometry relative="1" as="geometry" />
        </mxCell>
        <mxCell id="LRmHkcy2NVX13I5E6LH1-8" value="last_word" style="shape=parallelogram;perimeter=parallelogramPerimeter;whiteSpace=wrap;html=1;fixedSize=1;" vertex="1" parent="1">
          <mxGeometry x="126.25" y="580" width="100" height="20" as="geometry" />
        </mxCell>
      </root>
    </mxGraphModel>
  </diagram>
</mxfile>
